PathFileType	4	(X/Y/Z)	C:/Users/beibeiliu/ov580/test_trc/User1\sequence.3_training_dense_right.trc
DataRate	CameraRate	NumFrames	NumMarkers	Units	OrigDataRate	OrigDataStartFrame	OrigNumFrames
120	120	16	19	mm	120	31	242
Frame#	Time	ThumbCMC			ThumbMCP			ThumbIP			ThumbTip			IndexMCP			IndexPIP			IndexTip			MiddleMCP			MiddlePIP			MiddleTip			RingMCP			RingPIP			RingTip			PinkyMCP			PinkyPIP			PinkyTip			BackHand1			BackHand2			BackHand3	
		X0	Y0	Z0	X1	Y1	Z1	X2	Y2	Z2	X3	Y3	Z3	X4	Y4	Z4	X5	Y5	Z5	X6	Y6	Z6	X7	Y7	Z7	X8	Y8	Z8	X9	Y9	Z9	X10	Y10	Z10	X11	Y11	Z11	X12	Y12	Z12	X13	Y13	Z13	X14	Y14	Z14	X15	Y15	Z15	X16	Y16	Z16	X17	Y17	Z17	X18	Y18	Z18	
30	0.25	117.07	113.218	10.7555	92.563	108.531	-17.0501	82.5795	104.885	-41.6713	77.6446	92.0177	-64.8622	140.64	116.743	-68.5861	120.97	100.457	-89.4896	92.7626	89.598	-80.2429	150.491	91.9236	-75.9942	120.195	80.5906	-91.9708	93.327	70.3716	-67.4333	155.941	69.2189	-71.9913	126.271	62.6293	-87.2185	100.775	51.986	-64.3826	158.162	51.9168	-54.7174	134.98	50.0417	-71.6054	107.674	50.083	-62.0596	172.452	73.0969	-9.09346	171.113	70.8486	23.8332	158.738	105.887	10.1483	
31	0.258333	116.752	113.27	12.4146	91.2747	109.565	-18.7331	81.297	106.681	-41.8763	74.5839	92.0765	-67.5275	141.78	113.963	-66.5801	117.99	102.902	-90.236	89.5166	88.814	-78.1013	149.318	92.1555	-77.6571	119.869	80.3908	-92.0293	89.1328	72.6656	-66.2605	152.81	71.1295	-72.6181	124.081	61.175	-86.4191	99.7133	57.0877	-68.3234	157.12	49.8609	-54.8763	134.281	49.9401	-71.7367	105.162	53.2365	-59.7299	170.285	75.0654	-10.1566	170.898	73.3929	26.3156	159.122	103.144	8.74406	
32	0.266667	114.83	115.914	15.7494	89.3114	112.265	-17.5402	78.4465	110.369	-43.2883	74.2935	92.6973	-66.7573	140.528	115.279	-66.0532	113.977	105.732	-90.2448	88.6928	93.2453	-79.3227	148.11	93.569	-73.749	115.923	84.8688	-91.3214	89.523	71.071	-66.1298	152.176	71.0549	-70.8289	123.033	63.767	-86.9838	97.2281	54.5377	-65.7018	155.693	51.7959	-53.6182	132.561	46.6565	-73.1708	102.343	52.5886	-57.1795	171.64	72.5791	-8.92257	170.258	68.22	23.3825	159.364	103.579	5.84575	
33	0.275	115.781	114.878	14.5356	88.6013	114.176	-11.7946	77.5552	111.054	-38.8291	72.2488	95.3367	-66.7683	136.849	116.853	-70.0904	115.62	104.853	-89.8734	87.216	90.3093	-78.311	147.161	89.6269	-73.2769	115.109	83.2087	-91.3078	87.4518	74.2081	-67.5201	148.8	68.2116	-73.6516	120.431	60.8028	-86.6608	97.1249	53.2984	-67.1389	152.878	49.5848	-56.4363	129.689	46.6204	-73.1883	97.1041	50.5618	-59.0214	171.099	73.52	-9.21819	169.061	70.888	21.8214	155.918	105.964	9.5194	
34	0.283333	117.61	115.204	11.889	89.6105	117.93	-15.457	81.3737	111.896	-37.8148	71.87	97.2294	-66.1185	137.714	110.254	-68.6914	110.51	104.308	-90.8938	84.5359	92.3989	-79.3758	142.23	92.5457	-77.4837	113.495	82.9635	-90.9477	85.034	74.1538	-62.7621	146.472	68.3332	-71.8507	119.007	60.1343	-85.6856	90.2118	58.1585	-63.2744	148.888	47.7096	-55.6568	125.13	45.0376	-71.8576	96.9951	53.5379	-59.18	166.621	68.4476	-8.49559	165.661	68.3012	24.7687	156.629	103.627	5.60689	
35	0.291667	120.002	115.247	15.2062	92.6954	120.117	-16.8885	80.5311	117.01	-40.1956	75.2096	98.3396	-61.6845	136.913	111.162	-72.4711	114.248	99.2903	-88.6564	83.1102	95.3776	-79.0956	141.301	86.3735	-79.1727	109.416	80.0796	-90.4927	83.5151	73.1757	-62.7803	144.246	61.3194	-70.4656	110.984	61.1603	-84.7468	86.6199	56.773	-60.1463	143.862	44.9717	-57.1585	122.945	45.201	-70.521	93.5687	53.297	-56.4806	165.735	68.3993	-9.15572	164.526	64.5438	26.7857	159.377	97.9911	6.03587	
36	0.3	123.43	115.974	11.9136	96.0594	120.71	-12.2295	83.9564	118.863	-43.2773	73.8101	101.773	-61.7799	139.196	103.181	-70.562	113.364	100.688	-89.6213	83.7711	95.2829	-75.3769	139.072	85.4175	-77.5461	108.319	80.0627	-88.8874	79.4532	81.6961	-59.6731	139.589	59.6854	-69.2228	105.737	59.771	-82.172	83.8822	62.1667	-57.8706	138.414	38.7569	-51.5316	110.637	43.4234	-69.8507	89.664	56.5809	-57.6133	159.969	62.2379	-8.74592	162.506	61.9025	22.2042	159.038	94.2715	8.91009	
37	0.308333	125.149	114.181	16.2636	98.009	124.793	-11.4666	85.2666	122.131	-42.5944	73.9124	103.749	-60.7085	139.799	100.443	-67.8468	114.422	96.4604	-87.8659	83.2682	104.34	-73.5632	137.896	78.7334	-76.4651	104.78	77.849	-87.347	80.1666	82.7531	-56.3811	135.722	55.5239	-68.2184	101.065	60.5395	-80.9389	81.2803	67.4087	-58.4678	130.21	35.3644	-51.7374	105.032	43.7287	-67.7294	84.1921	61.1996	-51.549	157.303	55.8751	-6.41165	159.235	53.4391	23.3186	159.37	89.95	4.02332	
38	0.316667	128.655	114.453	17.0968	102.716	125.411	-11.3556	89.658	123.288	-41.0728	74.5899	108.015	-57.447	139.37	95.4142	-70.5692	112.907	97.8371	-87.6185	85.8707	106.512	-67.08	135.764	71.1745	-73.7443	104.553	80.0129	-86.9237	80.3223	90.4884	-55.1827	129.313	54.1387	-69.2155	100.279	57.7622	-81.1043	79.0131	70.8748	-57.0836	124.575	34.2786	-47.4152	102.956	40.6095	-66.0946	82.5797	61.7088	-52.1303	150.592	51.8475	-5.09109	154.211	52.398	24.8583	160.253	83.9189	6.05015	
39	0.325	131.59	116.256	16.7868	107.772	124.64	-15.4775	95.1135	120.97	-40.3151	77.8196	109.228	-55.9117	142.189	93.0259	-65.002	116.145	95.8962	-87.6364	89.4129	109.974	-66.9056	133.9	70.439	-75.1531	100.096	78.6946	-85.1498	81.6389	90.5356	-52.5724	123.407	47.7083	-68.2659	95.3655	59.9097	-79.3859	77.1297	73.7253	-53.5818	118.732	34.9023	-47.0135	95.3032	43.2747	-64.6915	77.1746	64.6436	-47.4379	145.405	44.4783	-4.69251	147.253	45.217	29.5823	159.513	79.884	6.77497	
40	0.333333	135.59	112.404	14.2755	112.232	124.732	-12.565	98.6449	124.735	-38.7009	82.5267	110.281	-56.8041	143.062	86.9533	-66.0177	114.806	89.9254	-85.2679	91.2834	108.604	-61.7051	130.849	61.7375	-71.7682	102.78	75.9808	-85.1502	82.3619	91.6263	-52.8029	119.771	42.5594	-62.1736	92.6504	57.93	-77.8828	73.9475	71.5844	-54.3736	110.203	28.0362	-44.9259	88.6552	41.5136	-62.7313	72.5663	64.4077	-47.1036	141.418	42.765	-3.76609	144.604	41.6785	30.2661	154.907	72.1115	8.81576	
41	0.341667	136.995	107.382	15.5626	116.851	126.316	-10.5648	104.115	122.795	-39.2485	84.1323	111.137	-58.3937	142.932	82.4605	-66.5614	114.521	88.2142	-85.3438	95.1751	107.36	-64.8445	127.955	60.3324	-73.8856	97.6376	72.917	-82.9999	82.16	89.2518	-49.3624	114.139	40.4809	-64.392	90.8462	56.4511	-77.6612	72.4174	73.3429	-49.6902	104.789	26.1595	-41.3589	85.6348	45.0399	-60.516	70.3159	64.9196	-46.7713	137.602	37.1076	-0.196335	137.782	39.2906	28.8452	154.788	70.4899	10.1804	
42	0.35	138.973	102.371	14.5955	121.249	122.358	-10.5964	108.437	123.607	-40.5969	87.2527	111.718	-59.8662	138.584	73.7747	-68.1023	114.745	82.4449	-84.0982	97.2572	103.661	-62.6065	123.427	53.5739	-72.7979	97.1939	69.0151	-83.2828	82.8724	89.8677	-50.6346	112.261	40.5033	-61.8061	85.5757	56.5722	-75.6707	72.9503	75.812	-53.7453	98.5077	24.2842	-41.1669	80.8516	40.2716	-60.6181	68.6731	68.3839	-44.0585	133.392	33.8642	0.519548	133.853	34.6756	29.8237	152.824	64.577	7.21659	
43	0.358333	141.533	101.451	15.0776	125.07	118.366	-11.66	112.615	120.929	-38.2212	92.5032	112.455	-55.6405	138.658	67.6112	-63.1743	113.41	83.3297	-85.4879	99.846	103.058	-63.1428	122.719	50.6124	-67.2738	97.2795	71.4553	-83.0248	84.8696	90.7168	-52.4151	108.664	35.6216	-59.7522	82.4216	57.4912	-74.0208	69.8431	73.0135	-49.9368	92.7432	23.0145	-41.827	78.1106	43.0959	-58.0481	68.0508	68.7486	-41.797	128.887	31.4499	1.80636	131.026	32.1802	31.4069	148.471	57.5143	12.0514	
44	0.366667	140.927	92.798	13.1366	129.707	114.36	-10.8526	116.967	117.505	-37.4477	95.0325	110.855	-56.0379	137.334	62.7618	-67.7159	115.46	77.0054	-84.9335	100.817	98.8242	-57.9925	118.978	47.7706	-69.1053	92.846	67.9159	-80.0356	86.4002	89.4305	-48.2732	101.187	34.105	-61.2773	79.2862	57.83	-72.1704	70.8461	74.0983	-46.4199	89.733	26.2827	-39.1521	72.066	44.4916	-55.262	71.0761	70.2726	-39.0477	124.429	25.4487	-0.663798	124.587	30.3024	36.3492	147.906	53.9364	13.0741	
45	0.375	142.158	88.7191	14.5939	133.698	110.87	-14.1546	122.726	115.754	-41.2037	97.3385	108.918	-59.733	134.843	55.978	-61.9088	114.974	74.3177	-83.4895	106.024	98.8691	-56.5156	117.11	43.999	-67.6196	95.3536	66.279	-81.4249	87.4721	87.4382	-46.5802	99.528	32.6228	-55.9709	77.1227	57.7157	-69.8439	71.8694	76.7583	-43.6519	81.8854	23.2584	-39.5383	72.0644	43.1389	-54.2911	64.3601	72.2236	-37.5292	119.743	25.9676	2.80992	119.428	25.0695	38.8398	147.285	49.9443	10.8533	
